<svg width="69" height="77" viewBox="0 0 69 77" fill="none" xmlns="http://www.w3.org/2000/svg">
<rect x="12.5" y="13" width="52" height="52" rx="26" fill="#CE7D63"/>
<path d="M40 31.5L47.5 39M47.5 39L40 46.5M47.5 39H29.5" stroke="#0F0F0F" stroke-width="1.5" stroke-linecap="round" stroke-linejoin="round"/>
<path d="M68.166 63.6316C63.0222 69.6011 56.1705 73.8485 48.536 75.8003C40.9015 77.7521 32.852 77.3143 25.4743 74.5459C18.0966 71.7775 11.7461 66.812 7.2801 60.3197C2.81415 53.8274 0.44791 46.1211 0.500869 38.2413C0.553829 30.3614 3.02344 22.6876 7.57625 16.2559C12.1291 9.82428 18.5458 4.94453 25.96 2.27557C33.3743 -0.393391 41.429 -0.723011 49.0365 1.33121C56.644 3.38544 63.438 7.72457 68.5011 13.7627L67.1852 14.8662C62.3479 9.09737 55.857 4.95179 48.5888 2.9892C41.3206 1.02661 33.6252 1.34153 26.5417 3.89143C19.4582 6.44133 13.3277 11.1034 8.97797 17.2482C4.62825 23.393 2.2688 30.7245 2.2182 38.2528C2.1676 45.7811 4.4283 53.1437 8.69503 59.3464C12.9618 65.549 19.0291 70.2931 26.0777 72.938C33.1263 75.5829 40.8167 76.0012 48.1106 74.1365C55.4045 72.2718 61.9506 68.2138 66.865 62.5105L68.166 63.6316Z" fill="#CE7D63"/>
</svg>
