<svg width="428" height="101" viewBox="0 0 428 101" fill="none" xmlns="http://www.w3.org/2000/svg">
<path d="M94.768 7.352C92.2933 7.352 89.904 8.46133 87.6 10.68C85.3813 12.8133 83.632 15.672 82.352 19.256L53.296 99H39.344L10.544 19.768C9.09333 15.7573 7.38667 12.6853 5.424 10.552C3.54667 8.41866 1.92533 7.352 0.56 7.352V6.072H39.728V7.352C37.0827 7.352 35.2907 8.41866 34.352 10.552C33.4987 12.6853 33.84 15.928 35.376 20.28L56.368 78.52L78.128 18.872C79.5787 14.6907 79.7493 11.7467 78.64 10.04C77.616 8.248 75.7813 7.352 73.136 7.352V6.072H94.768V7.352ZM100.454 61.752C100.881 69.944 102.886 76.216 106.47 80.568C110.139 84.92 114.875 87.096 120.678 87.096C121.873 87.096 123.451 87.0107 125.414 86.84C127.377 86.584 129.382 85.9867 131.43 85.048C133.478 84.1093 135.398 82.744 137.19 80.952C138.982 79.0747 140.219 76.472 140.902 73.144H142.182C141.841 77.496 140.817 81.3787 139.11 84.792C137.489 88.12 135.355 90.936 132.71 93.24C130.065 95.544 126.993 97.2933 123.494 98.488C119.995 99.6827 116.198 100.28 112.102 100.28C107.153 100.28 102.587 99.4267 98.406 97.72C94.31 96.0133 90.7687 93.624 87.782 90.552C84.7953 87.48 82.4487 83.8107 80.742 79.544C79.1207 75.2773 78.31 70.584 78.31 65.464C78.31 60.344 79.078 55.6933 80.614 51.512C82.2353 47.3307 84.454 43.7467 87.27 40.76C90.1713 37.7733 93.5847 35.4693 97.51 33.848C101.521 32.1413 105.915 31.288 110.694 31.288C115.046 31.288 119.099 32.0133 122.854 33.464C126.694 34.8293 130.022 36.792 132.838 39.352C135.654 41.8267 137.873 44.7707 139.494 48.184C141.115 51.512 141.926 55.1387 141.926 59.064V61.752H100.454ZM120.806 58.68C120.55 51.1707 119.569 45.2827 117.862 41.016C116.155 36.664 113.937 34.488 111.206 34.488C109.585 34.488 108.134 35.128 106.854 36.408C105.574 37.688 104.465 39.4373 103.526 41.656C102.587 43.8747 101.862 46.4773 101.35 49.464C100.838 52.3653 100.497 55.4373 100.326 58.68H120.806ZM168.73 97.72C169.498 97.72 170.138 97.3787 170.65 96.696C171.162 95.928 171.418 94.9893 171.418 93.88C171.503 92.6853 171.375 91.3627 171.034 89.912C170.693 88.376 170.095 86.8827 169.242 85.432L161.306 71.864L151.45 85.432C150.341 86.8827 149.487 88.376 148.89 89.912C148.378 91.3627 148.037 92.6853 147.866 93.88C147.781 94.9893 147.909 95.928 148.25 96.696C148.677 97.3787 149.274 97.72 150.042 97.72V99H134.81V97.72C135.578 97.72 136.517 97.3787 137.626 96.696C138.735 95.928 139.887 94.9467 141.082 93.752C142.362 92.472 143.642 91.064 144.922 89.528C146.287 87.992 147.525 86.456 148.634 84.92L159.898 69.432L146.33 46.136C145.477 44.6853 144.538 43.2347 143.514 41.784C142.49 40.248 141.466 38.9253 140.442 37.816C139.418 36.6213 138.394 35.6827 137.37 35C136.431 34.232 135.578 33.848 134.81 33.848V32.568H168.602V33.848C167.834 33.848 167.194 34.232 166.682 35C166.255 35.6827 165.999 36.664 165.914 37.944C165.829 39.1387 165.999 40.504 166.426 42.04C166.853 43.576 167.493 45.112 168.346 46.648L174.746 57.656L183.066 46.136C184.175 44.6853 184.986 43.2347 185.498 41.784C186.095 40.248 186.437 38.9253 186.522 37.816C186.693 36.6213 186.565 35.6827 186.138 35C185.797 34.232 185.242 33.848 184.474 33.848V32.568H199.706V33.848C198.938 33.848 197.999 34.232 196.89 35C195.781 35.6827 194.586 36.664 193.306 37.944C192.111 39.1387 190.874 40.504 189.594 42.04C188.314 43.576 187.077 45.112 185.882 46.648L176.154 60.088L190.746 84.92C191.685 86.456 192.666 87.992 193.69 89.528C194.714 91.064 195.738 92.472 196.762 93.752C197.786 94.9467 198.81 95.928 199.834 96.696C200.858 97.3787 201.754 97.72 202.522 97.72V99H168.73V97.72ZM214.341 92.088C214.341 88.9307 215.109 86.712 216.645 85.432C218.181 84.152 220.016 83.512 222.149 83.512C224.368 83.512 226.245 84.152 227.781 85.432C229.402 86.712 230.213 88.9307 230.213 92.088C230.213 95.16 229.402 97.3787 227.781 98.744C226.245 100.109 224.368 100.792 222.149 100.792C220.016 100.792 218.181 100.109 216.645 98.744C215.109 97.3787 214.341 95.16 214.341 92.088ZM247.951 19C247.951 15.16 247.354 12.2587 246.159 10.296C244.964 8.33333 243.556 7.352 241.935 7.352V6.072H276.879V7.352C275.343 7.352 273.978 8.33333 272.783 10.296C271.588 12.2587 270.991 15.16 270.991 19V95.16H288.783C292.623 95.16 295.738 94.648 298.127 93.624C300.602 92.6 302.607 91.192 304.143 89.4C305.679 87.608 306.831 85.5173 307.599 83.128C308.452 80.6533 309.178 77.9653 309.775 75.064H311.055L310.415 99H241.935V97.72C243.556 97.72 244.964 96.7387 246.159 94.776C247.354 92.8133 247.951 89.912 247.951 86.072V19ZM373.333 88.376C373.333 89.8267 373.546 90.9787 373.973 91.832C374.485 92.6 375.253 92.984 376.277 92.984C376.96 92.984 377.557 92.8133 378.069 92.472C378.666 92.1307 379.221 91.4053 379.733 90.296H381.013C381.013 93.1973 379.69 95.5867 377.045 97.464C374.485 99.3413 371.242 100.28 367.317 100.28C359.21 100.28 354.218 97.848 352.341 92.984C350.378 95.544 347.904 97.4213 344.917 98.616C342.016 99.7253 338.773 100.28 335.189 100.28C332.288 100.28 329.514 99.8107 326.869 98.872C324.309 97.9333 322.048 96.568 320.085 94.776C318.122 92.8987 316.544 90.68 315.349 88.12C314.24 85.4747 313.685 82.488 313.685 79.16C313.685 74.3813 314.624 70.3707 316.501 67.128C318.378 63.8853 320.725 61.2827 323.541 59.32C326.357 57.3573 329.386 55.9493 332.629 55.096C335.957 54.2427 339.029 53.816 341.845 53.816C343.637 53.816 345.13 53.944 346.325 54.2C347.605 54.3707 348.629 54.584 349.397 54.84C350.25 55.1813 350.976 55.5227 351.573 55.864V46.648C351.573 42.9787 350.933 40.0347 349.653 37.816C348.458 35.5973 346.88 34.488 344.917 34.488C341.589 34.488 339.925 37.8587 339.925 44.6C339.925 47.416 338.816 49.7627 336.597 51.64C334.378 53.5173 331.349 54.456 327.509 54.456C324.522 54.456 322.218 53.688 320.597 52.152C318.976 50.616 318.165 48.568 318.165 46.008C318.165 43.704 318.805 41.656 320.085 39.864C321.45 37.9867 323.285 36.408 325.589 35.128C327.893 33.848 330.581 32.9093 333.653 32.312C336.81 31.6293 340.181 31.288 343.765 31.288C348.629 31.288 352.896 32.0133 356.565 33.464C360.234 34.9147 363.306 37.0053 365.781 39.736C368.341 42.3813 370.218 45.624 371.413 49.464C372.693 53.2187 373.333 57.4427 373.333 62.136V88.376ZM351.573 64.184C351.573 62.7333 351.146 61.368 350.293 60.088C349.525 58.808 348.202 58.168 346.325 58.168C343.338 58.168 340.906 60.0453 339.029 63.8C337.152 67.4693 336.213 72.76 336.213 79.672C336.213 83.9387 336.981 87.224 338.517 89.528C340.053 91.832 341.888 92.984 344.021 92.984C347.008 92.984 349.525 91.6613 351.573 89.016V64.184ZM404.833 81.976C405.516 86.2427 407.222 89.4427 409.953 91.576C412.684 93.7093 415.542 94.776 418.529 94.776C422.369 94.776 425.441 92.2587 427.745 87.224C430.049 82.104 431.201 75.2773 431.201 66.744C431.201 58.2107 430.049 51.5547 427.745 46.776C425.441 41.912 422.454 39.48 418.785 39.48C416.14 39.48 413.452 40.5467 410.721 42.68C408.076 44.8133 406.113 47.7147 404.833 51.384V81.976ZM383.201 20.664C383.201 18.9573 383.03 17.2933 382.689 15.672C382.348 14.0507 381.878 12.6427 381.281 11.448C380.769 10.168 380.129 9.18666 379.361 8.504C378.678 7.736 377.953 7.352 377.185 7.352V6.072C379.404 5.90133 381.708 5.688 384.097 5.432C386.486 5.09067 388.833 4.70667 391.137 4.28C393.526 3.85333 395.745 3.38399 397.793 2.87199C399.926 2.27466 401.761 1.592 403.297 0.823997H404.833V43.576C407.564 39.6507 410.721 36.6213 414.305 34.488C417.974 32.3547 422.156 31.288 426.849 31.288C430.689 31.288 434.273 32.056 437.601 33.592C440.929 35.0427 443.83 37.2187 446.305 40.12C448.78 42.936 450.7 46.4347 452.065 50.616C453.516 54.712 454.241 59.3627 454.241 64.568C454.241 69.7733 453.516 74.5947 452.065 79.032C450.614 83.384 448.524 87.1387 445.793 90.296C443.148 93.4533 439.948 95.928 436.193 97.72C432.524 99.4267 428.428 100.28 423.905 100.28C415.372 100.28 408.929 97.5493 404.577 92.088L384.481 99H383.201V20.664ZM484.732 34.488C483.196 34.488 481.831 35.0853 480.636 36.28C479.441 37.4747 478.844 39.1813 478.844 41.4C478.844 44.216 479.697 46.6907 481.404 48.824C483.111 50.9573 485.244 52.92 487.804 54.712C490.364 56.4187 493.137 58.1253 496.124 59.832C499.111 61.4533 501.884 63.2453 504.444 65.208C507.004 67.0853 509.137 69.2613 510.844 71.736C512.551 74.1253 513.404 76.9413 513.404 80.184C513.404 83.0853 512.679 85.7733 511.228 88.248C509.863 90.7227 507.9 92.856 505.34 94.648C502.78 96.44 499.751 97.848 496.252 98.872C492.839 99.8107 489.084 100.28 484.988 100.28C480.892 100.28 477.095 99.9387 473.596 99.256C470.097 98.6587 467.025 97.72 464.38 96.44C461.82 95.0747 459.772 93.368 458.236 91.32C456.785 89.272 456.06 86.8827 456.06 84.152C456.06 81.2507 456.999 78.7333 458.876 76.6C460.839 74.4667 463.313 73.4 466.3 73.4C468.775 73.4 470.695 73.9973 472.06 75.192C473.425 76.3013 474.449 77.752 475.132 79.544C475.9 81.336 476.455 83.256 476.796 85.304C477.223 87.2667 477.692 89.144 478.204 90.936C478.801 92.728 479.569 94.2213 480.508 95.416C481.532 96.5253 483.025 97.08 484.988 97.08C487.036 97.08 488.615 96.6107 489.724 95.672C490.919 94.7333 491.516 93.2827 491.516 91.32C491.516 88.5893 490.663 86.2 488.956 84.152C487.249 82.0187 485.073 80.0133 482.428 78.136C479.868 76.2587 477.095 74.424 474.108 72.632C471.121 70.84 468.305 68.8773 465.66 66.744C463.1 64.6107 460.967 62.264 459.26 59.704C457.553 57.0587 456.7 54.0293 456.7 50.616C456.7 47.9707 457.383 45.496 458.748 43.192C460.199 40.8027 462.161 38.7547 464.636 37.048C467.111 35.256 470.012 33.848 473.34 32.824C476.753 31.8 480.423 31.288 484.348 31.288C493.393 31.288 500.348 32.8667 505.212 36.024C510.161 39.096 512.636 43.1067 512.636 48.056C512.636 50.7867 511.74 52.9627 509.948 54.584C508.156 56.2053 505.767 57.016 502.78 57.016C500.391 57.016 498.471 56.4613 497.02 55.352C495.655 54.2427 494.503 52.8773 493.564 51.256C492.711 49.5493 492.028 47.7147 491.516 45.752C491.089 43.7893 490.577 41.9973 489.98 40.376C489.468 38.6693 488.828 37.2613 488.06 36.152C487.292 35.0427 486.183 34.488 484.732 34.488Z" fill="black"/>
</svg>
